<?xml version="1.0" encoding="utf-8"?>
<!-- Generator: Adobe Illustrator 15.0.0, SVG Export Plug-In  -->
<!DOCTYPE svg PUBLIC "-//W3C//DTD SVG 1.1//EN" "http://www.w3.org/Graphics/SVG/1.1/DTD/svg11.dtd" [
	<!ENTITY ns_flows "http://ns.adobe.com/Flows/1.0/">
]>
<svg version="1.1"
	 xmlns="http://www.w3.org/2000/svg" xmlns:xlink="http://www.w3.org/1999/xlink" xmlns:a="http://ns.adobe.com/AdobeSVGViewerExtensions/3.0/"
	 x="0px" y="0px" width="150px" height="22px" viewBox="-0.036 -0.339 150 22" enable-background="new -0.036 -0.339 150 22"
	 xml:space="preserve">
<defs>
</defs>
<path fill="#86A33D" d="M18.305,3.392c-0.921-1.02-2.031-1.841-3.331-2.461C13.673,0.31,12.232,0,10.652,0
	c-1.541,0-2.961,0.295-4.26,0.885C5.091,1.476,3.965,2.266,3.015,3.256C2.064,4.246,1.323,5.39,0.794,6.691S0,9.344,0,10.745
	c0,1.38,0.254,2.721,0.765,4.02c0.511,1.301,1.226,2.458,2.146,3.469c0.92,1.01,2.032,1.827,3.332,2.444
	c1.3,0.618,2.741,0.93,4.322,0.93c1.539,0,2.96-0.3,4.26-0.9c1.3-0.602,2.42-1.394,3.361-2.385c0.94-0.988,1.677-2.134,2.207-3.436
	c0.529-1.301,0.795-2.65,0.795-4.052c0-1.34-0.25-2.661-0.75-3.959C19.936,5.572,19.225,4.413,18.305,3.392z M15.829,13.099
	c-0.23,0.771-0.575,1.461-1.035,2.071c-0.461,0.61-1.042,1.104-1.741,1.482c-0.7,0.382-1.521,0.57-2.461,0.57
	c-0.9,0-1.701-0.18-2.4-0.537c-0.701-0.359-1.286-0.841-1.754-1.442c-0.471-0.602-0.825-1.284-1.066-2.057
	c-0.239-0.768-0.359-1.563-0.359-2.384c0-0.8,0.115-1.585,0.345-2.356c0.229-0.769,0.58-1.456,1.05-2.056
	c0.471-0.6,1.051-1.085,1.74-1.455c0.69-0.37,1.506-0.555,2.445-0.555c0.9,0,1.697,0.176,2.387,0.526s1.275,0.82,1.755,1.41
	c0.48,0.59,0.84,1.271,1.08,2.042c0.239,0.771,0.359,1.563,0.359,2.387C16.174,11.544,16.06,12.33,15.829,13.099z"/>
<path fill="#86A33D" d="M37.721,11.013c0,0.779-0.074,1.544-0.225,2.295c-0.15,0.75-0.405,1.416-0.765,1.997
	c-0.361,0.579-0.83,1.045-1.411,1.395c-0.581,0.352-1.29,0.526-2.13,0.526c-0.841,0-1.546-0.169-2.116-0.509
	c-0.569-0.342-1.035-0.801-1.395-1.383c-0.36-0.577-0.621-1.238-0.78-1.979c-0.161-0.737-0.24-1.52-0.24-2.34V0.12h-4.922v10.893
	c0,1.403,0.175,2.741,0.526,4.021c0.35,1.279,0.9,2.404,1.65,3.375c0.75,0.972,1.726,1.747,2.926,2.326
	c1.2,0.581,2.651,0.87,4.352,0.87c1.639,0,3.055-0.273,4.246-0.823c1.189-0.553,2.17-1.308,2.941-2.267
	c0.77-0.96,1.34-2.081,1.71-3.361c0.37-1.281,0.555-2.661,0.555-4.142V0.12h-4.922V11.013z"/>
<polygon fill="#86A33D" points="44.772,4.441 51.286,4.441 51.286,21.427 56.207,21.427 56.207,4.441 62.688,4.441 62.688,0.12 
	44.772,0.12 "/>
<path fill="#86A33D" d="M80.976,3.241c-0.89-0.96-1.994-1.72-3.313-2.281c-1.324-0.56-2.862-0.841-4.622-0.841h-7.953v21.309h7.953
	c1.601,0,3.054-0.258,4.367-0.768c1.31-0.51,2.43-1.231,3.359-2.161c0.933-0.931,1.646-2.05,2.145-3.361
	c0.501-1.31,0.75-2.776,0.75-4.396c0-1.46-0.226-2.836-0.675-4.126C82.537,5.328,81.868,4.202,80.976,3.241z M78.277,13.28
	c-0.251,0.769-0.61,1.439-1.078,2.008c-0.471,0.571-1.057,1.017-1.756,1.335c-0.701,0.319-1.5,0.481-2.401,0.481h-3.031V4.441h3.031
	c0.88,0,1.672,0.149,2.372,0.45c0.699,0.299,1.29,0.73,1.77,1.29c0.481,0.56,0.845,1.227,1.094,1.997
	c0.252,0.769,0.376,1.624,0.376,2.566C78.653,11.663,78.529,12.507,78.277,13.28z"/>
<path fill="#86A33D" d="M103.65,3.392c-0.919-1.02-2.03-1.841-3.331-2.461C99.019,0.31,97.579,0,95.999,0
	c-1.539,0-2.963,0.295-4.261,0.885c-1.303,0.59-2.425,1.38-3.377,2.371c-0.948,0.99-1.692,2.134-2.221,3.436
	c-0.529,1.301-0.796,2.652-0.796,4.051c0,1.382,0.257,2.722,0.766,4.021c0.511,1.3,1.228,2.457,2.147,3.468
	c0.92,1.01,2.03,1.827,3.331,2.444c1.3,0.619,2.741,0.932,4.318,0.932c1.54,0,2.965-0.3,4.263-0.901
	c1.303-0.601,2.42-1.394,3.362-2.384c0.94-0.99,1.673-2.136,2.207-3.436c0.527-1.303,0.792-2.652,0.792-4.054
	c0-1.339-0.247-2.66-0.748-3.958C105.281,5.572,104.569,4.413,103.65,3.392z M101.176,13.099c-0.231,0.771-0.575,1.461-1.034,2.071
	c-0.461,0.61-1.04,1.104-1.741,1.482c-0.7,0.382-1.52,0.57-2.462,0.57c-0.901,0-1.702-0.18-2.401-0.537
	c-0.697-0.359-1.284-0.841-1.753-1.442c-0.472-0.602-0.826-1.284-1.068-2.057c-0.238-0.768-0.356-1.563-0.356-2.384
	c0-0.8,0.111-1.585,0.345-2.356c0.23-0.769,0.579-1.456,1.05-2.056c0.471-0.6,1.05-1.085,1.741-1.455
	c0.69-0.37,1.505-0.555,2.445-0.555c0.9,0,1.697,0.176,2.385,0.526c0.69,0.35,1.277,0.82,1.757,1.41
	c0.479,0.59,0.838,1.271,1.078,2.042s0.358,1.563,0.358,2.387C101.519,11.544,101.404,12.33,101.176,13.099z"/>
<path fill="#86A33D" d="M126.456,3.392c-0.92-1.02-2.029-1.841-3.33-2.461C121.827,0.31,120.386,0,118.806,0
	c-1.539,0-2.961,0.295-4.262,0.885c-1.302,0.59-2.426,1.38-3.376,2.371c-0.951,0.99-1.69,2.134-2.22,3.436s-0.796,2.652-0.796,4.051
	c0,1.382,0.255,2.722,0.767,4.021c0.51,1.3,1.225,2.457,2.146,3.468c0.918,1.01,2.03,1.827,3.331,2.444
	c1.298,0.619,2.741,0.932,4.318,0.932c1.54,0,2.963-0.3,4.266-0.901c1.297-0.601,2.418-1.394,3.357-2.384
	c0.942-0.99,1.675-2.136,2.209-3.436c0.528-1.303,0.792-2.652,0.792-4.054c0-1.339-0.247-2.66-0.749-3.958
	C128.089,5.572,127.377,4.413,126.456,3.392z M123.981,13.099c-0.229,0.771-0.574,1.461-1.034,2.071
	c-0.459,0.61-1.04,1.104-1.739,1.482c-0.701,0.382-1.522,0.57-2.462,0.57c-0.9,0-1.703-0.18-2.401-0.537
	c-0.701-0.359-1.285-0.841-1.756-1.442c-0.47-0.602-0.822-1.284-1.064-2.057c-0.241-0.768-0.361-1.563-0.361-2.384
	c0-0.8,0.115-1.585,0.346-2.356c0.232-0.771,0.58-1.456,1.05-2.056c0.473-0.6,1.05-1.085,1.743-1.455
	c0.689-0.37,1.503-0.555,2.446-0.555c0.9,0,1.695,0.176,2.384,0.526c0.692,0.35,1.275,0.82,1.756,1.41
	c0.48,0.59,0.839,1.271,1.08,2.042c0.237,0.771,0.357,1.563,0.357,2.387C124.328,11.544,124.211,12.33,123.981,13.099z"/>
<path fill="#86A33D" d="M145.273,13.505c0.539-0.303,1.025-0.665,1.454-1.096c0.432-0.43,0.795-0.916,1.096-1.456
	c0.299-0.54,0.527-1.116,0.692-1.725c0.159-0.611,0.235-1.246,0.235-1.905c0-0.881-0.173-1.751-0.523-2.612
	c-0.352-0.86-0.835-1.63-1.454-2.311c-0.621-0.679-1.356-1.23-2.207-1.65c-0.852-0.42-1.774-0.63-2.777-0.63h-9.602v21.308h4.922
	v-6.874h3.213l4.08,6.874h5.551L145.273,13.505z M143.11,9.438c-0.418,0.551-0.918,0.825-1.498,0.825h-4.502V4.441h4.353
	c0.561,0,1.079,0.259,1.561,0.78c0.48,0.521,0.721,1.22,0.721,2.102C143.742,8.182,143.531,8.887,143.11,9.438z"/>
</svg>
